# xmcd CD database file
#
# Track frame offsets:
#	150
#	10834
#	27012
#	43143
#	52472
#	54036
#	67556
#	68658
#	74379
#	75608
#	95996
#	96778
#	105967
#	118475
#	119876
#
# Disc length: 1733 seconds
#
# Revision: 0
# Processed by: cddbd v1.5.2PL0 Copyright (c) Steve Scherf et al.
# Submitted via: CDex 1.51
#
DISCID=ce06c30f
DTITLE=Gil Scott-Heron - I'm New Here
DYEAR=1900
DGENRE=Blues
TTITLE0=Gil Scott-Heron - On Coming from a Broken Home, Pt. 1
TTITLE1=Gil Scott-Heron - Me and the Devil
TTITLE2=Gil Scott-Heron - I'm New Here
TTITLE3=Gil Scott-Heron - Your Soul and Mine
TTITLE4=Gil Scott-Heron - Parents (Interlude)
TTITLE5=Gil Scott-Heron - I'll Take Care of You
TTITLE6=Gil Scott-Heron - Being Blessed (Interlude)
TTITLE7=Gil Scott-Heron - Where Did the Night Go
TTITLE8=Gil Scott-Heron - I Was Guided (Interlude)
TTITLE9=Gil Scott-Heron - New York Is Killing Me
TTITLE10=Gil Scott-Heron - Certain Things (Interlude)
TTITLE11=Gil Scott-Heron - Running
TTITLE12=Gil Scott-Heron - The Crutch
TTITLE13=Gil Scott-Heron - I've Been Me (Interlude)
TTITLE14=Gil Scott-Heron - On Coming from a Broken Home, Pt. 2
EXTD=
EXTT0=
EXTT1=
EXTT2=
EXTT3=
EXTT4=
EXTT5=
EXTT6=
EXTT7=
EXTT8=
EXTT9=
EXTT10=
EXTT11=
EXTT12=
EXTT13=
EXTT14=
PLAYORDER=
